<?xml version="1.0" standalone="no"?><!DOCTYPE svg PUBLIC "-//W3C//DTD SVG 1.1//EN" "http://www.w3.org/Graphics/SVG/1.1/DTD/svg11.dtd"><svg t="1666000768568" viewBox="0 0 1024 1024" xmlns="http://www.w3.org/2000/svg" xmlns:xlink="http://www.w3.org/1999/xlink" width="48" height="48"><path d="M512 853.333333c-55.466667 0-21.333333-38.4-85.333333-102.4-59.733333-64-256-25.6-256-238.933333 0-187.733333 153.6-341.333333 341.333333-341.333333s341.333333 153.6 341.333333 341.333333-153.6 341.333333-341.333333 341.333333z m256-341.333333c0-140.8-115.2-256-256-256s-256 115.2-256 256c0 68.266667 21.333333 89.6 81.066667 110.933333 4.266667 0 12.8 4.266667 21.333333 4.266667 4.266667 0 17.066667 4.266667 21.333333 8.533333 55.466667 17.066667 81.066667 29.866667 106.666667 55.466667 21.333333 21.333333 34.133333 42.666667 46.933333 64 0 4.266667 4.266667 8.533333 4.266667 12.8 128-12.8 230.4-123.733333 230.4-256z m-128-85.333333c-25.6 0-42.666667-17.066667-42.666667-42.666667s17.066667-42.666667 42.666667-42.666667 42.666667 16.066667 42.666667 42.666667-17.066667 42.666665-42.666667 42.666667z m-119.466667-55.466667c-25.6 0-42.666667-17.066667-42.666666-42.666667s17.066667-42.666667 42.666666-42.666666 42.666667 17.066667 42.666667 42.666666-17.066667 42.666667-42.666667 42.666667z m183.466667 162.133333c-25.6 0-42.666667-17.066667-42.666667-42.666666s17.066667-42.666667 42.666667-42.666667 42.666667 17.066667 42.666667 42.666667-17.066667 42.666667-42.666667 42.666666zM392.533333 413.866667c-25.6 0-42.666667-17.066667-42.666666-42.666667s17.066667-42.666667 42.666666-42.666667 42.666667 17.066667 42.666667 42.666667-17.066667 42.666667-42.666667 42.666667z m196.266667 298.666666c-34.133333 0-64-29.866667-64-64s29.866667-64 64-64 64 29.866667 64 64c-4.266667 34.133333-29.866667 64-64 64z" fill="#444444"></path></svg>